<mxfile host="65bd71144e">
    <diagram id="8cRl48Ow0yZJk7q36QeJ" name="Packer">
        <mxGraphModel grid="1" page="1" gridSize="10" guides="1" tooltips="1" connect="1" arrows="1" fold="1" pageScale="1" pageWidth="850" pageHeight="1100" math="0" shadow="0">
            <root>
                <mxCell id="0"/>
                <mxCell id="1" parent="0"/>
                <mxCell id="2" value="Packer" style="swimlane;childLayout=stackLayout;resizeParent=1;resizeParentMax=0;horizontal=1;startSize=20;horizontalStack=0;html=1;" vertex="1" parent="1">
                    <mxGeometry x="110" y="110" width="590" height="380" as="geometry"/>
                </mxCell>
                <mxCell id="3" value="Host" style="swimlane;startSize=20;horizontal=0;html=1;" vertex="1" parent="2">
                    <mxGeometry y="20" width="590" height="120" as="geometry"/>
                </mxCell>
                <mxCell id="24" style="edgeStyle=none;html=1;entryX=0;entryY=0.5;entryDx=0;entryDy=0;" edge="1" parent="3" source="6" target="9">
                    <mxGeometry relative="1" as="geometry"/>
                </mxCell>
                <mxCell id="6" value="packer build" style="rounded=1;whiteSpace=wrap;html=1;fillColor=#fff2cc;strokeColor=#d6b656;" vertex="1" parent="3">
                    <mxGeometry x="60" y="10" width="80" height="30" as="geometry"/>
                </mxCell>
                <mxCell id="25" style="edgeStyle=none;html=1;entryX=0;entryY=0.5;entryDx=0;entryDy=0;" edge="1" parent="3" source="9" target="13">
                    <mxGeometry relative="1" as="geometry"/>
                </mxCell>
                <mxCell id="9" value="source &quot;qemu&quot;" style="rounded=1;whiteSpace=wrap;html=1;fillColor=#fff2cc;strokeColor=#d6b656;" vertex="1" parent="3">
                    <mxGeometry x="275" y="10" width="80" height="30" as="geometry"/>
                </mxCell>
                <mxCell id="13" value="qemu-system-x86_64" style="rounded=1;whiteSpace=wrap;html=1;fillColor=#f8cecc;strokeColor=#b85450;" vertex="1" parent="3">
                    <mxGeometry x="480" y="10" width="80" height="30" as="geometry"/>
                </mxCell>
                <mxCell id="21" value="post-processor &quot;local-shell&quot;" style="rounded=1;whiteSpace=wrap;html=1;fillColor=#fff2cc;strokeColor=#d6b656;" vertex="1" parent="3">
                    <mxGeometry x="275" y="70" width="90" height="30" as="geometry"/>
                </mxCell>
                <mxCell id="O1C6mJOoXXrmJJM1vw0g-31" value="http&lt;br&gt;kickstart" style="rounded=1;whiteSpace=wrap;html=1;fillColor=#6a00ff;strokeColor=#3700CC;fontColor=#ffffff;" vertex="1" parent="3">
                    <mxGeometry x="400" y="70" width="80" height="30" as="geometry"/>
                </mxCell>
                <mxCell id="4" value="Guest" style="swimlane;startSize=20;horizontal=0;html=1;" vertex="1" parent="2">
                    <mxGeometry y="140" width="590" height="120" as="geometry"/>
                </mxCell>
                <mxCell id="27" style="edgeStyle=none;html=1;entryX=1;entryY=0.5;entryDx=0;entryDy=0;" edge="1" parent="4" source="18" target="19">
                    <mxGeometry relative="1" as="geometry"/>
                </mxCell>
                <mxCell id="28" style="edgeStyle=none;html=1;entryX=1;entryY=0.5;entryDx=0;entryDy=0;" edge="1" parent="4" source="18" target="20">
                    <mxGeometry relative="1" as="geometry"/>
                </mxCell>
                <mxCell id="18" value="boot_command" style="rounded=1;whiteSpace=wrap;html=1;fillColor=#f8cecc;strokeColor=#b85450;" vertex="1" parent="4">
                    <mxGeometry x="480" y="30" width="80" height="30" as="geometry"/>
                </mxCell>
                <mxCell id="19" value="provisoner &quot;shell&quot;" style="rounded=1;whiteSpace=wrap;html=1;fillColor=#f8cecc;strokeColor=#b85450;" vertex="1" parent="4">
                    <mxGeometry x="360" y="10" width="80" height="30" as="geometry"/>
                </mxCell>
                <mxCell id="20" value="provisoner &quot;ansible-local&quot;" style="rounded=1;whiteSpace=wrap;html=1;fillColor=#f8cecc;strokeColor=#b85450;" vertex="1" parent="4">
                    <mxGeometry x="360" y="50" width="80" height="30" as="geometry"/>
                </mxCell>
                <mxCell id="5" value="Storage" style="swimlane;startSize=20;horizontal=0;html=1;" vertex="1" parent="2">
                    <mxGeometry y="260" width="590" height="120" as="geometry"/>
                </mxCell>
                <mxCell id="22" value="Minio S3 Storage" style="rounded=1;whiteSpace=wrap;html=1;fillColor=#6a00ff;strokeColor=#3700CC;fontColor=#ffffff;" vertex="1" parent="5">
                    <mxGeometry x="60" y="30" width="90" height="30" as="geometry"/>
                </mxCell>
                <mxCell id="26" style="edgeStyle=none;html=1;entryX=0.5;entryY=0;entryDx=0;entryDy=0;" edge="1" parent="2" source="13" target="18">
                    <mxGeometry relative="1" as="geometry"/>
                </mxCell>
                <mxCell id="29" style="edgeStyle=none;html=1;entryX=0.5;entryY=1;entryDx=0;entryDy=0;exitX=0;exitY=0.5;exitDx=0;exitDy=0;" edge="1" parent="2" source="19" target="21">
                    <mxGeometry relative="1" as="geometry"/>
                </mxCell>
                <mxCell id="30" style="edgeStyle=none;html=1;exitX=0;exitY=0.5;exitDx=0;exitDy=0;entryX=0.5;entryY=1;entryDx=0;entryDy=0;" edge="1" parent="2" source="20" target="21">
                    <mxGeometry relative="1" as="geometry">
                        <mxPoint x="320" y="120" as="targetPoint"/>
                    </mxGeometry>
                </mxCell>
                <mxCell id="31" style="edgeStyle=none;html=1;exitX=0;exitY=0.5;exitDx=0;exitDy=0;entryX=0.5;entryY=0;entryDx=0;entryDy=0;" edge="1" parent="2" source="21" target="22">
                    <mxGeometry relative="1" as="geometry">
                        <mxPoint x="150" y="300" as="targetPoint"/>
                    </mxGeometry>
                </mxCell>
                <mxCell id="O1C6mJOoXXrmJJM1vw0g-33" value="" style="endArrow=none;dashed=1;html=1;entryX=0.5;entryY=1;entryDx=0;entryDy=0;exitX=0.5;exitY=0;exitDx=0;exitDy=0;" edge="1" parent="2" source="18" target="O1C6mJOoXXrmJJM1vw0g-31">
                    <mxGeometry width="50" height="50" relative="1" as="geometry">
                        <mxPoint x="250" y="80" as="sourcePoint"/>
                        <mxPoint x="300" y="30" as="targetPoint"/>
                    </mxGeometry>
                </mxCell>
                <mxCell id="7" value="逻辑" style="rounded=1;whiteSpace=wrap;html=1;fillColor=#fff2cc;strokeColor=#d6b656;" vertex="1" parent="1">
                    <mxGeometry x="160" y="30" width="80" height="30" as="geometry"/>
                </mxCell>
                <mxCell id="23" value="第三方" style="rounded=1;whiteSpace=wrap;html=1;fillColor=#f8cecc;strokeColor=#b85450;" vertex="1" parent="1">
                    <mxGeometry x="280" y="30" width="80" height="30" as="geometry"/>
                </mxCell>
                <mxCell id="O1C6mJOoXXrmJJM1vw0g-32" value="存储" style="rounded=1;whiteSpace=wrap;html=1;fillColor=#6a00ff;strokeColor=#3700CC;fontColor=#ffffff;" vertex="1" parent="1">
                    <mxGeometry x="410" y="30" width="80" height="30" as="geometry"/>
                </mxCell>
            </root>
        </mxGraphModel>
    </diagram>
    <diagram id="-3waZG9lo8PckmG9xr15" name="packer-plugin-ansible">
        <mxGraphModel grid="1" page="1" gridSize="10" guides="1" tooltips="1" connect="1" arrows="1" fold="1" pageScale="1" pageWidth="850" pageHeight="1100" math="0" shadow="0">
            <root>
                <mxCell id="0"/>
                <mxCell id="1" parent="0"/>
                <mxCell id="aWbhTXMJWz7BV8u0gzcX-1" value="Orgchart" style="swimlane;startSize=20;horizontal=1;containerType=tree;newEdgeStyle={&quot;edgeStyle&quot;:&quot;elbowEdgeStyle&quot;,&quot;startArrow&quot;:&quot;none&quot;,&quot;endArrow&quot;:&quot;none&quot;};" vertex="1" parent="1">
                    <mxGeometry x="70" y="230" width="650" height="420" as="geometry"/>
                </mxCell>
                <mxCell id="aWbhTXMJWz7BV8u0gzcX-2" value="" style="edgeStyle=elbowEdgeStyle;elbow=vertical;sourcePerimeterSpacing=0;targetPerimeterSpacing=0;startArrow=none;endArrow=none;rounded=0;curved=0;" edge="1" parent="aWbhTXMJWz7BV8u0gzcX-1" source="aWbhTXMJWz7BV8u0gzcX-4" target="aWbhTXMJWz7BV8u0gzcX-5">
                    <mxGeometry relative="1" as="geometry"/>
                </mxCell>
                <UserObject label="playbook.yml" treeRoot="1" id="aWbhTXMJWz7BV8u0gzcX-4">
                    <mxCell style="whiteSpace=wrap;html=1;align=center;treeFolding=1;treeMoving=1;newEdgeStyle={&quot;edgeStyle&quot;:&quot;elbowEdgeStyle&quot;,&quot;startArrow&quot;:&quot;none&quot;,&quot;endArrow&quot;:&quot;none&quot;};fillColor=#ffe6cc;strokeColor=#d79b00;rounded=1;" vertex="1" parent="aWbhTXMJWz7BV8u0gzcX-1">
                        <mxGeometry x="230" y="81" width="120" height="30" as="geometry"/>
                    </mxCell>
                </UserObject>
                <mxCell id="aWbhTXMJWz7BV8u0gzcX-5" value="roles" style="whiteSpace=wrap;html=1;align=center;verticalAlign=middle;treeFolding=1;treeMoving=1;newEdgeStyle={&quot;edgeStyle&quot;:&quot;elbowEdgeStyle&quot;,&quot;startArrow&quot;:&quot;none&quot;,&quot;endArrow&quot;:&quot;none&quot;};fillColor=#ffe6cc;strokeColor=#d79b00;rounded=1;" vertex="1" parent="aWbhTXMJWz7BV8u0gzcX-1">
                    <mxGeometry x="240" y="151" width="100" height="30" as="geometry"/>
                </mxCell>
                <mxCell id="aWbhTXMJWz7BV8u0gzcX-28" style="edgeStyle=elbowEdgeStyle;html=1;startArrow=none;endArrow=none;entryX=0.5;entryY=0;entryDx=0;entryDy=0;" edge="1" parent="aWbhTXMJWz7BV8u0gzcX-1" source="aWbhTXMJWz7BV8u0gzcX-7" target="aWbhTXMJWz7BV8u0gzcX-23">
                    <mxGeometry relative="1" as="geometry"/>
                </mxCell>
                <mxCell id="aWbhTXMJWz7BV8u0gzcX-7" value="tasks" style="whiteSpace=wrap;html=1;align=center;verticalAlign=middle;treeFolding=1;treeMoving=1;newEdgeStyle={&quot;edgeStyle&quot;:&quot;elbowEdgeStyle&quot;,&quot;startArrow&quot;:&quot;none&quot;,&quot;endArrow&quot;:&quot;none&quot;};fillColor=#ffe6cc;strokeColor=#d79b00;rounded=1;" vertex="1" parent="aWbhTXMJWz7BV8u0gzcX-1">
                    <mxGeometry x="240" y="211" width="100" height="30" as="geometry"/>
                </mxCell>
                <mxCell id="aWbhTXMJWz7BV8u0gzcX-8" value="" style="edgeStyle=elbowEdgeStyle;elbow=vertical;sourcePerimeterSpacing=0;targetPerimeterSpacing=0;startArrow=none;endArrow=none;rounded=0;curved=0;exitX=0.5;exitY=1;exitDx=0;exitDy=0;" edge="1" parent="aWbhTXMJWz7BV8u0gzcX-1" source="aWbhTXMJWz7BV8u0gzcX-5" target="aWbhTXMJWz7BV8u0gzcX-7">
                    <mxGeometry relative="1" as="geometry">
                        <mxPoint x="290" y="121" as="sourcePoint"/>
                        <mxPoint x="290" y="151" as="targetPoint"/>
                    </mxGeometry>
                </mxCell>
                <mxCell id="aWbhTXMJWz7BV8u0gzcX-11" value="" style="edgeStyle=elbowEdgeStyle;elbow=vertical;sourcePerimeterSpacing=0;targetPerimeterSpacing=0;startArrow=none;endArrow=none;rounded=0;curved=0;exitX=0.5;exitY=1;exitDx=0;exitDy=0;" edge="1" target="aWbhTXMJWz7BV8u0gzcX-12" source="aWbhTXMJWz7BV8u0gzcX-5" parent="aWbhTXMJWz7BV8u0gzcX-1">
                    <mxGeometry relative="1" as="geometry">
                        <mxPoint x="390" y="391" as="sourcePoint"/>
                    </mxGeometry>
                </mxCell>
                <mxCell id="aWbhTXMJWz7BV8u0gzcX-22" style="edgeStyle=elbowEdgeStyle;html=1;startArrow=none;endArrow=none;entryX=1;entryY=0.5;entryDx=0;entryDy=0;" edge="1" parent="aWbhTXMJWz7BV8u0gzcX-1" source="aWbhTXMJWz7BV8u0gzcX-12" target="aWbhTXMJWz7BV8u0gzcX-7">
                    <mxGeometry relative="1" as="geometry"/>
                </mxCell>
                <mxCell id="aWbhTXMJWz7BV8u0gzcX-12" value="files" style="whiteSpace=wrap;html=1;align=center;verticalAlign=middle;treeFolding=1;treeMoving=1;newEdgeStyle={&quot;edgeStyle&quot;:&quot;elbowEdgeStyle&quot;,&quot;startArrow&quot;:&quot;none&quot;,&quot;endArrow&quot;:&quot;none&quot;};fillColor=#ffe6cc;strokeColor=#d79b00;rounded=1;" vertex="1" parent="aWbhTXMJWz7BV8u0gzcX-1">
                    <mxGeometry x="400" y="211" width="100" height="30" as="geometry"/>
                </mxCell>
                <mxCell id="aWbhTXMJWz7BV8u0gzcX-17" value="" style="edgeStyle=elbowEdgeStyle;elbow=vertical;sourcePerimeterSpacing=0;targetPerimeterSpacing=0;startArrow=none;endArrow=none;rounded=0;curved=0;exitX=0.5;exitY=1;exitDx=0;exitDy=0;" edge="1" target="aWbhTXMJWz7BV8u0gzcX-18" source="aWbhTXMJWz7BV8u0gzcX-5" parent="aWbhTXMJWz7BV8u0gzcX-1">
                    <mxGeometry relative="1" as="geometry">
                        <mxPoint x="390" y="391" as="sourcePoint"/>
                        <mxPoint x="130" y="211" as="targetPoint"/>
                    </mxGeometry>
                </mxCell>
                <mxCell id="aWbhTXMJWz7BV8u0gzcX-21" style="edgeStyle=elbowEdgeStyle;html=1;startArrow=none;endArrow=none;entryX=0;entryY=0.5;entryDx=0;entryDy=0;exitX=1;exitY=0.5;exitDx=0;exitDy=0;" edge="1" parent="aWbhTXMJWz7BV8u0gzcX-1" source="aWbhTXMJWz7BV8u0gzcX-18" target="aWbhTXMJWz7BV8u0gzcX-7">
                    <mxGeometry relative="1" as="geometry">
                        <mxPoint x="180" y="226" as="sourcePoint"/>
                    </mxGeometry>
                </mxCell>
                <mxCell id="aWbhTXMJWz7BV8u0gzcX-18" value="vars" style="whiteSpace=wrap;html=1;align=center;verticalAlign=middle;treeFolding=1;treeMoving=1;newEdgeStyle={&quot;edgeStyle&quot;:&quot;elbowEdgeStyle&quot;,&quot;startArrow&quot;:&quot;none&quot;,&quot;endArrow&quot;:&quot;none&quot;};fillColor=#ffe6cc;strokeColor=#d79b00;rounded=1;" vertex="1" parent="aWbhTXMJWz7BV8u0gzcX-1">
                    <mxGeometry x="90" y="211" width="100" height="30" as="geometry"/>
                </mxCell>
                <mxCell id="aWbhTXMJWz7BV8u0gzcX-29" style="edgeStyle=none;html=1;entryX=0.5;entryY=0;entryDx=0;entryDy=0;" edge="1" parent="aWbhTXMJWz7BV8u0gzcX-1" source="aWbhTXMJWz7BV8u0gzcX-23" target="aWbhTXMJWz7BV8u0gzcX-25">
                    <mxGeometry relative="1" as="geometry"/>
                </mxCell>
                <mxCell id="aWbhTXMJWz7BV8u0gzcX-30" style="edgeStyle=none;html=1;exitX=0;exitY=0.25;exitDx=0;exitDy=0;entryX=0.5;entryY=0;entryDx=0;entryDy=0;" edge="1" parent="aWbhTXMJWz7BV8u0gzcX-1" source="aWbhTXMJWz7BV8u0gzcX-23" target="aWbhTXMJWz7BV8u0gzcX-24">
                    <mxGeometry relative="1" as="geometry"/>
                </mxCell>
                <mxCell id="aWbhTXMJWz7BV8u0gzcX-31" style="edgeStyle=none;html=1;entryX=0.5;entryY=0;entryDx=0;entryDy=0;exitX=1;exitY=0.25;exitDx=0;exitDy=0;" edge="1" parent="aWbhTXMJWz7BV8u0gzcX-1" source="aWbhTXMJWz7BV8u0gzcX-23" target="aWbhTXMJWz7BV8u0gzcX-26">
                    <mxGeometry relative="1" as="geometry"/>
                </mxCell>
                <mxCell id="aWbhTXMJWz7BV8u0gzcX-32" style="edgeStyle=none;html=1;entryX=0.5;entryY=0;entryDx=0;entryDy=0;exitX=1;exitY=0.25;exitDx=0;exitDy=0;" edge="1" parent="aWbhTXMJWz7BV8u0gzcX-1" source="aWbhTXMJWz7BV8u0gzcX-23" target="aWbhTXMJWz7BV8u0gzcX-27">
                    <mxGeometry relative="1" as="geometry"/>
                </mxCell>
                <mxCell id="aWbhTXMJWz7BV8u0gzcX-23" value="task when" style="shape=offPageConnector;whiteSpace=wrap;html=1;fillColor=#fff2cc;strokeColor=#d6b656;rounded=1;" vertex="1" parent="aWbhTXMJWz7BV8u0gzcX-1">
                    <mxGeometry x="255" y="271" width="70" height="40" as="geometry"/>
                </mxCell>
                <mxCell id="aWbhTXMJWz7BV8u0gzcX-24" value="Centos Block" style="rounded=1;whiteSpace=wrap;html=1;fillColor=#fff2cc;strokeColor=#d6b656;" vertex="1" parent="aWbhTXMJWz7BV8u0gzcX-1">
                    <mxGeometry x="120" y="351" width="90" height="30" as="geometry"/>
                </mxCell>
                <mxCell id="aWbhTXMJWz7BV8u0gzcX-25" value="Ubuntu Block" style="rounded=1;whiteSpace=wrap;html=1;fillColor=#fff2cc;strokeColor=#d6b656;" vertex="1" parent="aWbhTXMJWz7BV8u0gzcX-1">
                    <mxGeometry x="245" y="351" width="90" height="30" as="geometry"/>
                </mxCell>
                <mxCell id="aWbhTXMJWz7BV8u0gzcX-26" value="Fedora Block" style="rounded=1;whiteSpace=wrap;html=1;fillColor=#fff2cc;strokeColor=#d6b656;" vertex="1" parent="aWbhTXMJWz7BV8u0gzcX-1">
                    <mxGeometry x="370" y="351" width="90" height="30" as="geometry"/>
                </mxCell>
                <mxCell id="aWbhTXMJWz7BV8u0gzcX-27" value="... Block" style="rounded=1;whiteSpace=wrap;html=1;fillColor=#fff2cc;strokeColor=#d6b656;" vertex="1" parent="aWbhTXMJWz7BV8u0gzcX-1">
                    <mxGeometry x="490" y="351" width="90" height="30" as="geometry"/>
                </mxCell>
                <mxCell id="aWbhTXMJWz7BV8u0gzcX-33" value="逻辑" style="rounded=1;whiteSpace=wrap;html=1;fillColor=#fff2cc;strokeColor=#d6b656;" vertex="1" parent="aWbhTXMJWz7BV8u0gzcX-1">
                    <mxGeometry x="50" y="30" width="60" height="20" as="geometry"/>
                </mxCell>
                <mxCell id="aWbhTXMJWz7BV8u0gzcX-34" value="单元" style="rounded=1;whiteSpace=wrap;html=1;fillColor=#ffe6cc;strokeColor=#d79b00;" vertex="1" parent="aWbhTXMJWz7BV8u0gzcX-1">
                    <mxGeometry x="130" y="30" width="60" height="20" as="geometry"/>
                </mxCell>
            </root>
        </mxGraphModel>
    </diagram>
    <diagram id="vKSUmVFW5JHT6yvJ8Ss3" name="ansible-playbook">
        <mxGraphModel dx="764" dy="380" grid="1" gridSize="10" guides="1" tooltips="1" connect="1" arrows="1" fold="1" page="1" pageScale="1" pageWidth="850" pageHeight="1100" math="0" shadow="0">
            <root>
                <mxCell id="0"/>
                <mxCell id="1" parent="0"/>
                <mxCell id="1cC3xkiyu2Rlqi_xUh_x-1" value="Ans" style="swimlane;childLayout=stackLayout;horizontal=1;fillColor=none;horizontalStack=1;resizeParent=1;resizeParentMax=0;resizeLast=0;collapsible=0;strokeColor=none;stackBorder=10;stackSpacing=-12;resizable=1;align=center;points=[];whiteSpace=wrap;html=1;" vertex="1" parent="1">
                    <mxGeometry x="41" y="20" width="296" height="100" as="geometry"/>
                </mxCell>
                <mxCell id="1cC3xkiyu2Rlqi_xUh_x-2" value="build-packer-templates.yaml" style="shape=step;perimeter=stepPerimeter;fixedSize=1;points=[];whiteSpace=wrap;html=1;" vertex="1" parent="1cC3xkiyu2Rlqi_xUh_x-1">
                    <mxGeometry x="10" y="33" width="100" height="57" as="geometry"/>
                </mxCell>
                <mxCell id="1cC3xkiyu2Rlqi_xUh_x-3" value="roles&lt;br&gt;build_packer_templates" style="shape=step;perimeter=stepPerimeter;fixedSize=1;points=[];whiteSpace=wrap;html=1;" vertex="1" parent="1cC3xkiyu2Rlqi_xUh_x-1">
                    <mxGeometry x="98" y="33" width="100" height="57" as="geometry"/>
                </mxCell>
                <mxCell id="1cC3xkiyu2Rlqi_xUh_x-4" value="Step 3" style="shape=step;perimeter=stepPerimeter;fixedSize=1;points=[];whiteSpace=wrap;html=1;" vertex="1" parent="1cC3xkiyu2Rlqi_xUh_x-1">
                    <mxGeometry x="186" y="33" width="100" height="57" as="geometry"/>
                </mxCell>
                <mxCell id="1cC3xkiyu2Rlqi_xUh_x-22" value="Mindmap" style="swimlane;startSize=20;horizontal=1;containerType=tree;" vertex="1" parent="1">
                    <mxGeometry x="200" y="270" width="840" height="500" as="geometry"/>
                </mxCell>
                <mxCell id="1cC3xkiyu2Rlqi_xUh_x-23" value="" style="edgeStyle=entityRelationEdgeStyle;startArrow=none;endArrow=none;segment=10;curved=1;sourcePerimeterSpacing=0;targetPerimeterSpacing=0;" edge="1" parent="1cC3xkiyu2Rlqi_xUh_x-22" source="1cC3xkiyu2Rlqi_xUh_x-27" target="1cC3xkiyu2Rlqi_xUh_x-28">
                    <mxGeometry relative="1" as="geometry"/>
                </mxCell>
                <mxCell id="1cC3xkiyu2Rlqi_xUh_x-25" value="" style="edgeStyle=entityRelationEdgeStyle;startArrow=none;endArrow=none;segment=10;curved=1;sourcePerimeterSpacing=0;targetPerimeterSpacing=0;exitX=0.5;exitY=1;exitDx=0;exitDy=0;entryX=0.5;entryY=0;entryDx=0;entryDy=0;strokeColor=#000000;fillColor=#6a00ff;strokeWidth=1;" edge="1" parent="1cC3xkiyu2Rlqi_xUh_x-22" source="1cC3xkiyu2Rlqi_xUh_x-27" target="1cC3xkiyu2Rlqi_xUh_x-30">
                    <mxGeometry relative="1" as="geometry"/>
                </mxCell>
                <mxCell id="1cC3xkiyu2Rlqi_xUh_x-27" value="build-packer-templates.yaml" style="ellipse;whiteSpace=wrap;html=1;align=center;treeFolding=1;treeMoving=1;newEdgeStyle={&quot;edgeStyle&quot;:&quot;entityRelationEdgeStyle&quot;,&quot;startArrow&quot;:&quot;none&quot;,&quot;endArrow&quot;:&quot;none&quot;,&quot;segment&quot;:10,&quot;curved&quot;:1,&quot;sourcePerimeterSpacing&quot;:0,&quot;targetPerimeterSpacing&quot;:0};fillColor=#ffe6cc;strokeColor=#d79b00;rounded=1;" vertex="1" parent="1cC3xkiyu2Rlqi_xUh_x-22">
                    <mxGeometry x="190" y="75" width="100" height="40" as="geometry"/>
                </mxCell>
                <mxCell id="1cC3xkiyu2Rlqi_xUh_x-28" value="Topic" style="whiteSpace=wrap;html=1;rounded=1;arcSize=50;align=center;verticalAlign=middle;strokeWidth=1;autosize=1;spacing=4;treeFolding=1;treeMoving=1;newEdgeStyle={&quot;edgeStyle&quot;:&quot;entityRelationEdgeStyle&quot;,&quot;startArrow&quot;:&quot;none&quot;,&quot;endArrow&quot;:&quot;none&quot;,&quot;segment&quot;:10,&quot;curved&quot;:1,&quot;sourcePerimeterSpacing&quot;:0,&quot;targetPerimeterSpacing&quot;:0};" vertex="1" parent="1cC3xkiyu2Rlqi_xUh_x-22">
                    <mxGeometry x="470" y="75" width="80" height="20" as="geometry"/>
                </mxCell>
                <mxCell id="1cC3xkiyu2Rlqi_xUh_x-30" value="roles&lt;br style=&quot;border-color: var(--border-color);&quot;&gt;build_packer_templates" style="whiteSpace=wrap;html=1;rounded=1;arcSize=50;align=center;verticalAlign=middle;strokeWidth=1;autosize=1;spacing=4;treeFolding=1;treeMoving=1;newEdgeStyle={&quot;edgeStyle&quot;:&quot;entityRelationEdgeStyle&quot;,&quot;startArrow&quot;:&quot;none&quot;,&quot;endArrow&quot;:&quot;none&quot;,&quot;segment&quot;:10,&quot;curved&quot;:1,&quot;sourcePerimeterSpacing&quot;:0,&quot;targetPerimeterSpacing&quot;:0};fillColor=#ffe6cc;strokeColor=#d79b00;" vertex="1" parent="1cC3xkiyu2Rlqi_xUh_x-22">
                    <mxGeometry x="190" y="160" width="130" height="30" as="geometry"/>
                </mxCell>
                <mxCell id="1cC3xkiyu2Rlqi_xUh_x-32" value="" style="edgeStyle=entityRelationEdgeStyle;html=1;startArrow=none;endArrow=none;segment=10;curved=1;sourcePerimeterSpacing=0;targetPerimeterSpacing=0;strokeColor=#00FF00;strokeWidth=2;" edge="1" source="1cC3xkiyu2Rlqi_xUh_x-27" target="1cC3xkiyu2Rlqi_xUh_x-33" parent="1cC3xkiyu2Rlqi_xUh_x-22">
                    <mxGeometry relative="1" as="geometry"/>
                </mxCell>
                <mxCell id="1cC3xkiyu2Rlqi_xUh_x-33" value="vars.images" style="ellipse;whiteSpace=wrap;html=1;align=center;treeFolding=1;treeMoving=1;newEdgeStyle={&quot;edgeStyle&quot;:&quot;entityRelationEdgeStyle&quot;,&quot;startArrow&quot;:&quot;none&quot;,&quot;endArrow&quot;:&quot;none&quot;,&quot;segment&quot;:10,&quot;curved&quot;:1,&quot;sourcePerimeterSpacing&quot;:0,&quot;targetPerimeterSpacing&quot;:0};fillColor=#6a00ff;fontColor=#ffffff;strokeColor=#3700CC;" vertex="1" parent="1cC3xkiyu2Rlqi_xUh_x-22">
                    <mxGeometry x="410" y="130" width="100" height="40" as="geometry"/>
                </mxCell>
                <mxCell id="1cC3xkiyu2Rlqi_xUh_x-34" value="" style="edgeStyle=entityRelationEdgeStyle;startArrow=none;endArrow=none;segment=10;curved=1;sourcePerimeterSpacing=0;targetPerimeterSpacing=0;exitX=0.5;exitY=1;exitDx=0;exitDy=0;entryX=0.5;entryY=0;entryDx=0;entryDy=0;fillColor=#6a00ff;strokeColor=#3700CC;strokeWidth=2;" edge="1" target="1cC3xkiyu2Rlqi_xUh_x-35" source="1cC3xkiyu2Rlqi_xUh_x-30" parent="1cC3xkiyu2Rlqi_xUh_x-22">
                    <mxGeometry relative="1" as="geometry">
                        <mxPoint x="770" y="465" as="sourcePoint"/>
                    </mxGeometry>
                </mxCell>
                <mxCell id="1cC3xkiyu2Rlqi_xUh_x-35" value="tasks&lt;br&gt;main.yaml" style="whiteSpace=wrap;html=1;rounded=1;arcSize=50;align=center;verticalAlign=middle;strokeWidth=1;autosize=1;spacing=4;treeFolding=1;treeMoving=1;newEdgeStyle={&quot;edgeStyle&quot;:&quot;entityRelationEdgeStyle&quot;,&quot;startArrow&quot;:&quot;none&quot;,&quot;endArrow&quot;:&quot;none&quot;,&quot;segment&quot;:10,&quot;curved&quot;:1,&quot;sourcePerimeterSpacing&quot;:0,&quot;targetPerimeterSpacing&quot;:0};fillColor=#ffe6cc;strokeColor=#d79b00;" vertex="1" parent="1cC3xkiyu2Rlqi_xUh_x-22">
                    <mxGeometry x="205" y="230" width="100" height="30" as="geometry"/>
                </mxCell>
                <mxCell id="1cC3xkiyu2Rlqi_xUh_x-38" value="" style="edgeStyle=entityRelationEdgeStyle;startArrow=none;endArrow=none;segment=10;curved=1;sourcePerimeterSpacing=0;targetPerimeterSpacing=0;exitX=1;exitY=0.75;exitDx=0;exitDy=0;entryX=0.5;entryY=0;entryDx=0;entryDy=0;strokeColor=#3700CC;fillColor=#6a00ff;strokeWidth=2;" edge="1" target="1cC3xkiyu2Rlqi_xUh_x-39" source="1cC3xkiyu2Rlqi_xUh_x-30" parent="1cC3xkiyu2Rlqi_xUh_x-22">
                    <mxGeometry relative="1" as="geometry">
                        <mxPoint x="605" y="500" as="sourcePoint"/>
                    </mxGeometry>
                </mxCell>
                <mxCell id="1cC3xkiyu2Rlqi_xUh_x-80" style="edgeStyle=entityRelationEdgeStyle;rounded=1;sketch=0;html=1;startArrow=none;endArrow=none;segment=10;curved=1;sourcePerimeterSpacing=0;targetPerimeterSpacing=0;entryX=0.5;entryY=0;entryDx=0;entryDy=0;strokeColor=#000000;strokeWidth=1;" edge="1" parent="1cC3xkiyu2Rlqi_xUh_x-22" source="1cC3xkiyu2Rlqi_xUh_x-39" target="1cC3xkiyu2Rlqi_xUh_x-69">
                    <mxGeometry relative="1" as="geometry"/>
                </mxCell>
                <mxCell id="1cC3xkiyu2Rlqi_xUh_x-85" style="edgeStyle=entityRelationEdgeStyle;rounded=1;sketch=0;html=1;startArrow=none;endArrow=none;segment=10;curved=1;sourcePerimeterSpacing=0;targetPerimeterSpacing=0;entryX=0.6;entryY=0;entryDx=0;entryDy=0;entryPerimeter=0;strokeColor=#000000;strokeWidth=1;" edge="1" parent="1cC3xkiyu2Rlqi_xUh_x-22" source="1cC3xkiyu2Rlqi_xUh_x-39" target="1cC3xkiyu2Rlqi_xUh_x-70">
                    <mxGeometry relative="1" as="geometry"/>
                </mxCell>
                <mxCell id="1cC3xkiyu2Rlqi_xUh_x-39" value="tasks&lt;br&gt;{{item.yaml}}.yaml" style="whiteSpace=wrap;html=1;rounded=1;arcSize=50;align=center;verticalAlign=middle;strokeWidth=1;autosize=1;spacing=4;treeFolding=1;treeMoving=1;newEdgeStyle={&quot;edgeStyle&quot;:&quot;entityRelationEdgeStyle&quot;,&quot;startArrow&quot;:&quot;none&quot;,&quot;endArrow&quot;:&quot;none&quot;,&quot;segment&quot;:10,&quot;curved&quot;:1,&quot;sourcePerimeterSpacing&quot;:0,&quot;targetPerimeterSpacing&quot;:0};fillColor=#f8cecc;strokeColor=#b85450;" vertex="1" parent="1cC3xkiyu2Rlqi_xUh_x-22">
                    <mxGeometry x="320" y="290" width="140" height="40" as="geometry"/>
                </mxCell>
                <mxCell id="1cC3xkiyu2Rlqi_xUh_x-42" value="var" style="rounded=1;whiteSpace=wrap;html=1;fillColor=#6a00ff;fontColor=#ffffff;strokeColor=#3700CC;" vertex="1" parent="1cC3xkiyu2Rlqi_xUh_x-22">
                    <mxGeometry x="30" y="25" width="90" height="25" as="geometry"/>
                </mxCell>
                <mxCell id="1cC3xkiyu2Rlqi_xUh_x-43" value="loop" style="rounded=1;whiteSpace=wrap;html=1;fillColor=#f8cecc;strokeColor=#b85450;" vertex="1" parent="1cC3xkiyu2Rlqi_xUh_x-22">
                    <mxGeometry x="140" y="25" width="90" height="25" as="geometry"/>
                </mxCell>
                <mxCell id="1cC3xkiyu2Rlqi_xUh_x-21" value="" style="endArrow=none;dashed=1;html=1;strokeWidth=2;exitX=1;exitY=0.5;exitDx=0;exitDy=0;entryX=0;entryY=0.5;entryDx=0;entryDy=0;strokeColor=#FFCC99;startArrow=none;sourcePerimeterSpacing=0;targetPerimeterSpacing=0;fillColor=#6a00ff;" edge="1" parent="1cC3xkiyu2Rlqi_xUh_x-22" source="1cC3xkiyu2Rlqi_xUh_x-35" target="1cC3xkiyu2Rlqi_xUh_x-33">
                    <mxGeometry width="50" height="50" relative="1" as="geometry">
                        <mxPoint x="-160" y="410" as="sourcePoint"/>
                        <mxPoint x="-10" y="150" as="targetPoint"/>
                    </mxGeometry>
                </mxCell>
                <mxCell id="1cC3xkiyu2Rlqi_xUh_x-44" value="" style="endArrow=none;dashed=1;html=1;entryX=0.42;entryY=1.05;entryDx=0;entryDy=0;entryPerimeter=0;exitX=0.5;exitY=0;exitDx=0;exitDy=0;strokeColor=#FFCC99;startArrow=none;sourcePerimeterSpacing=0;targetPerimeterSpacing=0;fillColor=#6a00ff;strokeWidth=2;" edge="1" parent="1cC3xkiyu2Rlqi_xUh_x-22" source="1cC3xkiyu2Rlqi_xUh_x-39" target="1cC3xkiyu2Rlqi_xUh_x-33">
                    <mxGeometry width="50" height="50" relative="1" as="geometry">
                        <mxPoint x="100" y="280" as="sourcePoint"/>
                        <mxPoint x="150" y="230" as="targetPoint"/>
                    </mxGeometry>
                </mxCell>
                <mxCell id="1cC3xkiyu2Rlqi_xUh_x-61" value="config" style="rounded=1;whiteSpace=wrap;html=1;fillColor=#ffe6cc;strokeColor=#d79b00;" vertex="1" parent="1cC3xkiyu2Rlqi_xUh_x-22">
                    <mxGeometry x="265" y="25" width="90" height="25" as="geometry"/>
                </mxCell>
                <mxCell id="1cC3xkiyu2Rlqi_xUh_x-64" value="" style="endArrow=none;dashed=1;html=1;entryX=0;entryY=0.5;entryDx=0;entryDy=0;exitX=1;exitY=0.5;exitDx=0;exitDy=0;strokeColor=#FFCC99;startArrow=none;sourcePerimeterSpacing=0;targetPerimeterSpacing=0;fillColor=#6a00ff;strokeWidth=2;" edge="1" parent="1cC3xkiyu2Rlqi_xUh_x-22" source="1cC3xkiyu2Rlqi_xUh_x-35" target="1cC3xkiyu2Rlqi_xUh_x-39">
                    <mxGeometry width="50" height="50" relative="1" as="geometry">
                        <mxPoint x="280" y="235" as="sourcePoint"/>
                        <mxPoint x="340" y="170" as="targetPoint"/>
                    </mxGeometry>
                </mxCell>
                <mxCell id="1cC3xkiyu2Rlqi_xUh_x-65" value="" style="edgeStyle=entityRelationEdgeStyle;startArrow=none;endArrow=none;segment=10;curved=1;sourcePerimeterSpacing=0;targetPerimeterSpacing=0;exitX=1;exitY=0.75;exitDx=0;exitDy=0;entryX=0;entryY=0.5;entryDx=0;entryDy=0;strokeColor=#3700CC;fillColor=#6a00ff;strokeWidth=2;" edge="1" target="1cC3xkiyu2Rlqi_xUh_x-66" source="1cC3xkiyu2Rlqi_xUh_x-30" parent="1cC3xkiyu2Rlqi_xUh_x-22">
                    <mxGeometry relative="1" as="geometry">
                        <mxPoint x="460" y="385" as="sourcePoint"/>
                    </mxGeometry>
                </mxCell>
                <mxCell id="1cC3xkiyu2Rlqi_xUh_x-66" value="templates&lt;br&gt;{{*}}.j2" style="whiteSpace=wrap;html=1;rounded=1;arcSize=50;align=center;verticalAlign=middle;strokeWidth=1;autosize=1;spacing=4;treeFolding=1;treeMoving=1;newEdgeStyle={&quot;edgeStyle&quot;:&quot;entityRelationEdgeStyle&quot;,&quot;startArrow&quot;:&quot;none&quot;,&quot;endArrow&quot;:&quot;none&quot;,&quot;segment&quot;:10,&quot;curved&quot;:1,&quot;sourcePerimeterSpacing&quot;:0,&quot;targetPerimeterSpacing&quot;:0};fillColor=#ffe6cc;strokeColor=#d79b00;" vertex="1" parent="1cC3xkiyu2Rlqi_xUh_x-22">
                    <mxGeometry x="540" y="240" width="100" height="50" as="geometry"/>
                </mxCell>
                <mxCell id="1cC3xkiyu2Rlqi_xUh_x-67" value="" style="endArrow=none;dashed=1;html=1;entryX=1;entryY=0.5;entryDx=0;entryDy=0;exitX=0;exitY=0.5;exitDx=0;exitDy=0;strokeColor=#FFCC99;startArrow=none;sourcePerimeterSpacing=0;targetPerimeterSpacing=0;fillColor=#6a00ff;strokeWidth=2;" edge="1" parent="1cC3xkiyu2Rlqi_xUh_x-22" source="1cC3xkiyu2Rlqi_xUh_x-66" target="1cC3xkiyu2Rlqi_xUh_x-39">
                    <mxGeometry width="50" height="50" relative="1" as="geometry">
                        <mxPoint x="330" y="310" as="sourcePoint"/>
                        <mxPoint x="380" y="260" as="targetPoint"/>
                    </mxGeometry>
                </mxCell>
                <mxCell id="1cC3xkiyu2Rlqi_xUh_x-68" value="product" style="rounded=1;whiteSpace=wrap;html=1;fillColor=#008a00;strokeColor=#005700;fontColor=#ffffff;" vertex="1" parent="1cC3xkiyu2Rlqi_xUh_x-22">
                    <mxGeometry x="410" y="25" width="90" height="25" as="geometry"/>
                </mxCell>
                <mxCell id="1cC3xkiyu2Rlqi_xUh_x-69" value="ansible" style="rounded=1;whiteSpace=wrap;html=1;fillColor=#008a00;strokeColor=#005700;fontColor=#ffffff;" vertex="1" parent="1cC3xkiyu2Rlqi_xUh_x-22">
                    <mxGeometry x="205" y="400" width="100" height="30" as="geometry"/>
                </mxCell>
                <mxCell id="1cC3xkiyu2Rlqi_xUh_x-70" value="http" style="rounded=1;whiteSpace=wrap;html=1;fillColor=#008a00;strokeColor=#005700;fontColor=#ffffff;" vertex="1" parent="1cC3xkiyu2Rlqi_xUh_x-22">
                    <mxGeometry x="360" y="400" width="100" height="30" as="geometry"/>
                </mxCell>
                <mxCell id="1cC3xkiyu2Rlqi_xUh_x-71" value="" style="edgeStyle=entityRelationEdgeStyle;html=1;startArrow=none;endArrow=none;segment=10;curved=1;sourcePerimeterSpacing=0;targetPerimeterSpacing=0;strokeColor=#00FF00;strokeWidth=2;" edge="1" parent="1cC3xkiyu2Rlqi_xUh_x-22">
                    <mxGeometry relative="1" as="geometry">
                        <mxPoint x="30" y="86" as="sourcePoint"/>
                        <mxPoint x="100" y="86" as="targetPoint"/>
                    </mxGeometry>
                </mxCell>
                <mxCell id="1cC3xkiyu2Rlqi_xUh_x-72" value="Defined in" style="edgeLabel;html=1;align=center;verticalAlign=middle;resizable=0;points=[];" vertex="1" connectable="0" parent="1cC3xkiyu2Rlqi_xUh_x-71">
                    <mxGeometry x="0.3886" y="4" relative="1" as="geometry">
                        <mxPoint x="-19" y="-7" as="offset"/>
                    </mxGeometry>
                </mxCell>
                <mxCell id="1cC3xkiyu2Rlqi_xUh_x-73" value="" style="edgeStyle=entityRelationEdgeStyle;html=1;startArrow=none;endArrow=none;segment=10;curved=1;sourcePerimeterSpacing=0;targetPerimeterSpacing=0;strokeColor=#3700CC;fillColor=#6a00ff;strokeWidth=2;" edge="1" parent="1cC3xkiyu2Rlqi_xUh_x-22">
                    <mxGeometry relative="1" as="geometry">
                        <mxPoint x="30" y="114" as="sourcePoint"/>
                        <mxPoint x="100" y="114" as="targetPoint"/>
                    </mxGeometry>
                </mxCell>
                <mxCell id="1cC3xkiyu2Rlqi_xUh_x-74" value="Structure in" style="edgeLabel;html=1;align=center;verticalAlign=middle;resizable=0;points=[];" vertex="1" connectable="0" parent="1cC3xkiyu2Rlqi_xUh_x-73">
                    <mxGeometry x="0.3886" y="4" relative="1" as="geometry">
                        <mxPoint x="-19" y="-7" as="offset"/>
                    </mxGeometry>
                </mxCell>
                <mxCell id="1cC3xkiyu2Rlqi_xUh_x-75" value="" style="edgeStyle=entityRelationEdgeStyle;html=1;startArrow=none;endArrow=none;segment=10;curved=1;sourcePerimeterSpacing=0;targetPerimeterSpacing=0;strokeColor=#000000;fillColor=#6a00ff;strokeWidth=1;" edge="1" parent="1cC3xkiyu2Rlqi_xUh_x-22">
                    <mxGeometry relative="1" as="geometry">
                        <mxPoint x="30" y="151" as="sourcePoint"/>
                        <mxPoint x="100" y="151" as="targetPoint"/>
                    </mxGeometry>
                </mxCell>
                <mxCell id="1cC3xkiyu2Rlqi_xUh_x-76" value="Sequence" style="edgeLabel;html=1;align=center;verticalAlign=middle;resizable=0;points=[];" vertex="1" connectable="0" parent="1cC3xkiyu2Rlqi_xUh_x-75">
                    <mxGeometry x="0.3886" y="4" relative="1" as="geometry">
                        <mxPoint x="-19" y="-7" as="offset"/>
                    </mxGeometry>
                </mxCell>
                <mxCell id="1cC3xkiyu2Rlqi_xUh_x-78" value="" style="edgeStyle=entityRelationEdgeStyle;html=1;startArrow=none;endArrow=none;segment=10;sourcePerimeterSpacing=0;targetPerimeterSpacing=0;strokeColor=#FFCC99;fillColor=#6a00ff;strokeWidth=2;rounded=1;dashed=1;" edge="1" parent="1cC3xkiyu2Rlqi_xUh_x-22">
                    <mxGeometry relative="1" as="geometry">
                        <mxPoint x="30" y="181" as="sourcePoint"/>
                        <mxPoint x="100" y="181" as="targetPoint"/>
                    </mxGeometry>
                </mxCell>
                <mxCell id="1cC3xkiyu2Rlqi_xUh_x-79" value="Sequence" style="edgeLabel;html=1;align=center;verticalAlign=middle;resizable=0;points=[];" vertex="1" connectable="0" parent="1cC3xkiyu2Rlqi_xUh_x-78">
                    <mxGeometry x="0.3886" y="4" relative="1" as="geometry">
                        <mxPoint x="-19" y="-7" as="offset"/>
                    </mxGeometry>
                </mxCell>
                <mxCell id="1cC3xkiyu2Rlqi_xUh_x-88" value="" style="edgeStyle=entityRelationEdgeStyle;startArrow=none;endArrow=none;segment=10;curved=1;sourcePerimeterSpacing=0;targetPerimeterSpacing=0;exitX=0.5;exitY=1;exitDx=0;exitDy=0;entryX=0.25;entryY=0;entryDx=0;entryDy=0;strokeColor=#3700CC;fillColor=#6a00ff;strokeWidth=2;" edge="1" target="1cC3xkiyu2Rlqi_xUh_x-89" source="1cC3xkiyu2Rlqi_xUh_x-66" parent="1cC3xkiyu2Rlqi_xUh_x-22">
                    <mxGeometry relative="1" as="geometry">
                        <mxPoint x="540" y="452.5" as="sourcePoint"/>
                    </mxGeometry>
                </mxCell>
                <mxCell id="1cC3xkiyu2Rlqi_xUh_x-89" value="linux.pkr.hcl.j2" style="whiteSpace=wrap;html=1;rounded=1;arcSize=50;align=center;verticalAlign=middle;strokeWidth=1;autosize=1;spacing=4;treeFolding=1;treeMoving=1;newEdgeStyle={&quot;edgeStyle&quot;:&quot;entityRelationEdgeStyle&quot;,&quot;startArrow&quot;:&quot;none&quot;,&quot;endArrow&quot;:&quot;none&quot;,&quot;segment&quot;:10,&quot;curved&quot;:1,&quot;sourcePerimeterSpacing&quot;:0,&quot;targetPerimeterSpacing&quot;:0};fillColor=#ffe6cc;strokeColor=#d79b00;" vertex="1" parent="1cC3xkiyu2Rlqi_xUh_x-22">
                    <mxGeometry x="520" y="410" width="110" height="30" as="geometry"/>
                </mxCell>
                <mxCell id="1cC3xkiyu2Rlqi_xUh_x-90" value="kickstart.cfg.j2" style="whiteSpace=wrap;html=1;rounded=1;arcSize=50;align=center;verticalAlign=middle;strokeWidth=1;autosize=1;spacing=4;treeFolding=1;treeMoving=1;newEdgeStyle={&quot;edgeStyle&quot;:&quot;entityRelationEdgeStyle&quot;,&quot;startArrow&quot;:&quot;none&quot;,&quot;endArrow&quot;:&quot;none&quot;,&quot;segment&quot;:10,&quot;curved&quot;:1,&quot;sourcePerimeterSpacing&quot;:0,&quot;targetPerimeterSpacing&quot;:0};fillColor=#ffe6cc;strokeColor=#d79b00;" vertex="1" parent="1cC3xkiyu2Rlqi_xUh_x-22">
                    <mxGeometry x="670" y="300" width="105" height="30" as="geometry"/>
                </mxCell>
                <mxCell id="1cC3xkiyu2Rlqi_xUh_x-91" value="" style="edgeStyle=entityRelationEdgeStyle;startArrow=none;endArrow=none;segment=10;curved=1;sourcePerimeterSpacing=0;targetPerimeterSpacing=0;exitX=0.5;exitY=1;exitDx=0;exitDy=0;entryX=0.25;entryY=0;entryDx=0;entryDy=0;strokeColor=#3700CC;fillColor=#6a00ff;strokeWidth=2;" edge="1" parent="1cC3xkiyu2Rlqi_xUh_x-22" source="1cC3xkiyu2Rlqi_xUh_x-66" target="1cC3xkiyu2Rlqi_xUh_x-90">
                    <mxGeometry relative="1" as="geometry">
                        <mxPoint x="590" y="290" as="sourcePoint"/>
                        <mxPoint x="537.5" y="330" as="targetPoint"/>
                    </mxGeometry>
                </mxCell>
                <mxCell id="1cC3xkiyu2Rlqi_xUh_x-92" value="preseed.cfg.j2" style="whiteSpace=wrap;html=1;rounded=1;arcSize=50;align=center;verticalAlign=middle;strokeWidth=1;autosize=1;spacing=4;treeFolding=1;treeMoving=1;newEdgeStyle={&quot;edgeStyle&quot;:&quot;entityRelationEdgeStyle&quot;,&quot;startArrow&quot;:&quot;none&quot;,&quot;endArrow&quot;:&quot;none&quot;,&quot;segment&quot;:10,&quot;curved&quot;:1,&quot;sourcePerimeterSpacing&quot;:0,&quot;targetPerimeterSpacing&quot;:0};fillColor=#ffe6cc;strokeColor=#d79b00;" vertex="1" parent="1cC3xkiyu2Rlqi_xUh_x-22">
                    <mxGeometry x="670" y="350" width="120" height="30" as="geometry"/>
                </mxCell>
                <mxCell id="1cC3xkiyu2Rlqi_xUh_x-93" value="" style="edgeStyle=entityRelationEdgeStyle;startArrow=none;endArrow=none;segment=10;curved=1;sourcePerimeterSpacing=0;targetPerimeterSpacing=0;exitX=0.5;exitY=1;exitDx=0;exitDy=0;entryX=0.25;entryY=0;entryDx=0;entryDy=0;strokeColor=#3700CC;fillColor=#6a00ff;strokeWidth=2;" edge="1" parent="1cC3xkiyu2Rlqi_xUh_x-22" source="1cC3xkiyu2Rlqi_xUh_x-66" target="1cC3xkiyu2Rlqi_xUh_x-92">
                    <mxGeometry relative="1" as="geometry">
                        <mxPoint x="590" y="290" as="sourcePoint"/>
                        <mxPoint x="651.25" y="330" as="targetPoint"/>
                    </mxGeometry>
                </mxCell>
                <mxCell id="1cC3xkiyu2Rlqi_xUh_x-94" value="user-data.j2" style="whiteSpace=wrap;html=1;rounded=1;arcSize=50;align=center;verticalAlign=middle;strokeWidth=1;autosize=1;spacing=4;treeFolding=1;treeMoving=1;newEdgeStyle={&quot;edgeStyle&quot;:&quot;entityRelationEdgeStyle&quot;,&quot;startArrow&quot;:&quot;none&quot;,&quot;endArrow&quot;:&quot;none&quot;,&quot;segment&quot;:10,&quot;curved&quot;:1,&quot;sourcePerimeterSpacing&quot;:0,&quot;targetPerimeterSpacing&quot;:0};fillColor=#ffe6cc;strokeColor=#d79b00;" vertex="1" parent="1cC3xkiyu2Rlqi_xUh_x-22">
                    <mxGeometry x="670" y="410" width="110" height="30" as="geometry"/>
                </mxCell>
                <mxCell id="1cC3xkiyu2Rlqi_xUh_x-95" value="" style="edgeStyle=entityRelationEdgeStyle;startArrow=none;endArrow=none;segment=10;curved=1;sourcePerimeterSpacing=0;targetPerimeterSpacing=0;exitX=0.5;exitY=1;exitDx=0;exitDy=0;entryX=0.25;entryY=0;entryDx=0;entryDy=0;strokeColor=#3700CC;fillColor=#6a00ff;strokeWidth=2;" edge="1" parent="1cC3xkiyu2Rlqi_xUh_x-22" source="1cC3xkiyu2Rlqi_xUh_x-66" target="1cC3xkiyu2Rlqi_xUh_x-94">
                    <mxGeometry relative="1" as="geometry">
                        <mxPoint x="590" y="290" as="sourcePoint"/>
                        <mxPoint x="606.25" y="380" as="targetPoint"/>
                    </mxGeometry>
                </mxCell>
            </root>
        </mxGraphModel>
    </diagram>
</mxfile>
